<svg xmlns="http://www.w3.org/2000/svg" width="1050" height="1050" fill="none"><path fill="#fff" d="M.026.502h1049.12v1049.12H.026z"/><path fill="#000" d="M915.971 666.481h-204.72c11.17 24.99 32.44 37.25 64.36 37.25a152.607 152.607 0 0 0 85.61-25.53l40.39 69.1c-38.28 27.12-81.89 40.43-131.34 40.43-52.64 0-93-14.89-121.76-44.13-28.706-29.78-43.063-66.47-43.07-110.07 0-44.66 14.89-81.89 44.13-111.13 29.78-29.25 68.59-44.13 115.92-44.13 44.134 0 80.824 13.29 110.07 39.87 29.24 26.06 43.6 62.22 43.6 107.41a295.144 295.144 0 0 1-3.19 40.93Zm-206.31-69.659h110.06c-9.026-24.46-27.103-36.691-54.23-36.691-27.646 0-46.256 12.231-55.83 36.691Zm-101 182.5h-165.78l-81.84-161.59h-44.77v161.59h-145.5v-254.43l84-49.71-.16 51.49 89.33-52.94-.18 52.91 160.7-95.13-160-96.47-.22 53.69-89-53.65-.19 52.22-84.28-50.81v-74.1h225.25c64.35 0 113.311 16.1 146.181 49 32.87 32.9 49.669 74.84 49.669 126.6 0 65.06-28 123.81-88.83 154.59l105.62 186.74Z"/><path fill="#000" d="m312.901 432.062-142.13 82.58v-46.08a37.688 37.688 0 0 0 37.69-37.69 37.687 37.687 0 0 0-37.69-37.69v-46.08l142.13 84.96Z"/><path fill="#6972B6" d="M146.412 414.091c1.54 1.6 3.106 3.167 4.7 4.7a1.014 1.014 0 0 1 .452.622.99.99 0 0 1-.122.758l-.09.12a21.425 21.425 0 0 0-2.55 13.65 22.158 22.158 0 0 0 41.747 6.997 22.157 22.157 0 0 0-4.399-25.919 22.159 22.159 0 0 0-26.058-3.478 1.001 1.001 0 0 1-1.4-.18c-1.51-1.57-3-3.149-4.63-4.619-.8-.73-.58-1.001.18-1.491a30.556 30.556 0 0 1 27.812-2.729 30.543 30.543 0 0 1 18.396 21.036 30.551 30.551 0 0 1-18.057 35.631 30.536 30.536 0 0 1-14.211 2.172c-6.52-.47-12.7-3.09-17.57-7.45a25.085 25.085 0 0 1-4-4.18c-.27-.36-.52-.71-.75-1.06a3.846 3.846 0 0 1-.53-.81 28.691 28.691 0 0 1-2.56-4.75 29.741 29.741 0 0 1-2.47-10.95 30.338 30.338 0 0 1 4.94-17.9c.37-.71.64-.73 1.17-.17Z"/><path fill="#6972B6" d="M169.752 421.731a1.182 1.182 0 0 1-1.1-.41c-1.47-1.5-2.94-3-4.48-4.47-.7-.66-.57-.9.25-1.21 6-2.25 11.59-1.61 16.6 2.35a15.763 15.763 0 0 1 6.11 15.4 16.544 16.544 0 0 1-28.473 8.83 16.542 16.542 0 0 1-4.427-11.25 16.756 16.756 0 0 1 1.23-6.37c.3-.77.51-1 1.19-.28 1.32 1.42 2.71 2.77 4.1 4.11a1.917 1.917 0 0 1 .75 2 5.786 5.786 0 0 0 .25 2.71 9.302 9.302 0 0 0 7.304 6.967 9.294 9.294 0 0 0 9.354-3.797 9.302 9.302 0 0 0 .382-10.087 9.302 9.302 0 0 0-9.04-4.493Z"/><path fill="#000" d="M135.612 397.972c1.86-.32 1.84-.3 2.17-2.12.33-1.82.68-3.63 1-5.47.4.155.747.423 1 .77 2.4 2.38 4.7 4.86 7.19 7.14 2.09 1.9 3 4.05 2.17 6.78a1.463 1.463 0 0 0 .47 1.66c7.533 7.5 15.05 15.013 22.55 22.54 1.09 1.1 1.19 2.44.3 3.36a2.345 2.345 0 0 1-2.702.358 2.34 2.34 0 0 1-.738-.618c-7.34-7.34-14.7-14.66-22-22.05a2.702 2.702 0 0 0-2.92-.87 5.195 5.195 0 0 1-5.29-1.56c-1.53-1.6-3.12-3.15-4.7-4.7-1.35-1.32-2.73-2.61-4.1-3.92a39.478 39.478 0 0 1 5.6-1.3Z"/></svg>